<svg width="192" height="192" viewBox="0 0 192 192" fill="none" xmlns="http://www.w3.org/2000/svg">
<rect width="192" height="192" fill="#34252F"/>
<path d="M42.8347 107.435L68.4347 75.2133H75.5344L45.0192 113.511L42.8347 107.435ZM41.4693 75.2133H47.4085V123H41.4693V75.2133ZM53.8256 97.8779L58.1947 94.1915L75.944 123H69.3904L53.8256 97.8779ZM86.3925 134.947L91.5125 121.566L90.9664 124.98L75.8795 86.136H81.8869L93.6971 116.788H93.9701L105.029 86.136H110.9L92.6048 136.039L86.3925 134.947ZM123.127 107.981C123.127 111.713 123.856 114.467 125.312 116.242C126.768 117.971 129.067 118.836 132.207 118.836C136.166 118.836 139.216 117.539 141.355 114.945C143.494 112.305 144.563 108.55 144.563 103.681L147.157 98.9701V103.476C147.157 109.893 145.769 114.854 142.993 118.358C140.262 121.817 136.303 123.546 131.115 123.546C126.336 123.546 122.809 122.317 120.533 119.86C118.303 117.402 117.188 113.602 117.188 108.459V86.136H123.127V107.981ZM150.571 123H146.406L144.563 110.849V86.136H150.571V123Z" fill="#CAAFC2"/>
</svg>
