<svg width="180" height="180" viewBox="0 0 180 180" fill="none" xmlns="http://www.w3.org/2000/svg">
<rect width="180" height="180" fill="#34252F"/>
<path d="M40.1575 100.408L64.1575 70.2H70.8135L42.2055 106.104L40.1575 100.408ZM38.8775 70.2H44.4455V115H38.8775V70.2ZM50.4615 91.448L54.5575 87.992L71.1975 115H65.0535L50.4615 91.448ZM80.993 126.2L85.793 113.656L85.281 116.856L71.137 80.44H76.769L87.841 109.176H88.097L98.465 80.44H103.969L86.817 127.224L80.993 126.2ZM115.432 100.92C115.432 104.419 116.115 107 117.48 108.664C118.845 110.285 121 111.096 123.944 111.096C127.656 111.096 130.515 109.88 132.52 107.448C134.525 104.973 135.528 101.453 135.528 96.888L137.96 92.472V96.696C137.96 102.712 136.659 107.363 134.056 110.648C131.496 113.891 127.784 115.512 122.92 115.512C118.44 115.512 115.133 114.36 113 112.056C110.909 109.752 109.864 106.189 109.864 101.368V80.44H115.432V100.92ZM141.16 115H137.256L135.528 103.608V80.44H141.16V115Z" fill="#CAAFC2"/>
</svg>
