<svg width="512" height="512" viewBox="0 0 512 512" fill="none" xmlns="http://www.w3.org/2000/svg">
<rect width="512" height="512" fill="#34252F"/>
<path d="M114.226 286.161L182.492 200.236H201.425L120.051 302.363L114.226 286.161ZM110.585 200.236H126.423V327.667H110.585V200.236ZM143.535 260.674L155.186 250.844L202.517 327.667H185.041L143.535 260.674ZM230.38 359.524L244.033 323.844L242.577 332.946L202.345 229.363H218.365L249.859 311.101H250.587L280.078 229.363H295.734L246.946 362.437L230.38 359.524ZM328.34 287.617C328.34 297.569 330.282 304.911 334.165 309.644C338.049 314.256 344.178 316.562 352.552 316.562C363.11 316.562 371.242 313.103 376.946 306.185C382.65 299.146 385.502 289.134 385.502 276.148L392.42 263.587V275.602C392.42 292.714 388.718 305.943 381.315 315.288C374.033 324.511 363.474 329.123 349.639 329.123C336.896 329.123 327.49 325.846 321.422 319.293C315.475 312.739 312.502 302.605 312.502 288.891V229.363H328.34V287.617ZM401.522 327.667H390.417L385.502 295.263V229.363H401.522V327.667Z" fill="#CAAFC2"/>
</svg>
