<svg width="512" height="512" viewBox="0 0 512 512" fill="none" xmlns="http://www.w3.org/2000/svg">
<rect width="512" height="512" rx="4" fill="#0B090A"/>
<path d="M209.48 346L136.008 264.592V346H112.712V167.568H136.008V250.256L209.736 167.568H239.176L158.28 256.912L239.944 346H209.48ZM288.746 167.568V280.464C288.746 296.336 292.586 308.112 300.266 315.792C308.117 323.472 318.954 327.312 332.778 327.312C346.431 327.312 357.098 323.472 364.778 315.792C372.629 308.112 376.554 296.336 376.554 280.464V167.568H399.85V280.208C399.85 295.056 396.863 307.6 390.89 317.84C384.917 327.909 376.81 335.419 366.57 340.368C356.501 345.317 345.151 347.792 332.522 347.792C319.893 347.792 308.458 345.317 298.218 340.368C288.149 335.419 280.127 327.909 274.154 317.84C268.351 307.6 265.45 295.056 265.45 280.208V167.568H288.746Z" fill="#7F636E"/>
</svg>
